# AST/ASF file generated using VICON BodyLanguage
# -----------------------------------------------
:version 1.10
:name VICON
:units
  mass 1.0
  length 0.45
  angle deg
:documentation
   .ast/.asf automatically generated from VICON data using
   VICON BodyBuilder and BodyLanguage model FoxedUp or BRILLIANT.MOD
:root
   order TX TY TZ RX RY RZ
   axis XYZ
   position 0 0 0  
   orientation 0 0 0 
:bonedata
  begin
     id 1 
     name lhipjoint
     direction 0.61886 -0.69539 0.365302 
     length 2.20474 
     axis 0 0 0  XYZ
  end
  begin
     id 2 
     name lfemur
     direction 0.34202 -0.939693 0  
     length 6.65149  
     axis 0 0 20  XYZ
    dof rx ry rz
    limits (-160.0 20.0)
           (-70.0 70.0)
           (-60.0 70.0)
  end
  begin
     id 3 
     name ltibia
     direction 0.34202 -0.939693 0   
     length 6.35814   
     axis 0 0 20   XYZ
    dof rx
    limits (-10.0 170.0)
  end
  begin
     id 4 
     name lfoot
     direction 0.101224 -0.278109 0.955201   
     length 2.18766   
     axis -90 7.62852e-016 20   XYZ
    dof rx rz
    limits (-45.0 90.0)
           (-70.0 20.0)
  end
  begin
     id 5 
     name ltoes
     direction 1.53524e-011 -4.21877e-011 1   
     length 1.09206   
     axis -90 7.62852e-016 20   XYZ
    dof rx
    limits (-90.0 20.0)
  end
  begin
     id 6 
     name rhipjoint
     direction -0.600207 -0.708087 0.371972   
     length 2.1652  
     axis 0 0 0  XYZ 
  end
  begin
     id 7 
     name rfemur
     direction -0.34202 -0.939693 0   
     length 6.54691   
     axis 0 0 -20   XYZ
    dof rx ry rz
    limits (-160.0 20.0)
           (-70.0 70.0)
           (-70.0 60.0)
  end
  begin
     id 8 
     name rtibia
     direction -0.34202 -0.939693 0   
     length 6.37474   
     axis 0 0 -20   XYZ
    dof rx
    limits (-10.0 170.0)
 end
 begin
     id 9 
     name rfoot
     direction -0.111266 -0.3057 0.945604   
     length 2.00903  
     axis -90 -7.62852e-016 -20   XYZ
    dof rx rz
    limits (-45.0 90.0)
           (-20.0 70.0)
  end
  begin
     id 10 
     name rtoes
     direction -1.5362e-011 -4.21913e-011 1   
     length 1.00221   
     axis -90 -7.62852e-016 -20   XYZ
    dof rx
    limits (-90.0 20.0)
  end
  begin
     id 11 
     name lowerback
     direction -0.0224561 0.999731 -0.00577314   
     length 2.10409   
     axis 0 0 0   XYZ
    dof rx ry rz
    limits (-20.0 45.0)
           (-30.0 30.0)
           (-30.0 30.0)
  end
  begin
     id 12 
     name upperback
     direction 0.0213126 0.999185 -0.0342817   
     length 2.09783   
     axis 0 0 0   XYZ
    dof rx ry rz
    limits (-20.0 45.0)
           (-30.0 30.0)
           (-30.0 30.0)
  end
  begin
     id 13 
     name thorax
     direction 0.0312356 0.999036 -0.0308451   
     length 2.09788   
     axis 0 0 0   XYZ
    dof rx ry rz
    limits (-20.0 45.0)
           (-30.0 30.0)
           (-30.0 30.0)
  end
  begin
     id 14 
     name lowerneck
     direction -0.0114419 0.996481 0.0830329   
     length 1.38575   
     axis 0 0 0   XYZ
    dof rx ry rz
    limits (-20.0 45.0)
           (-30.0 30.0)
           (-30.0 30.0)
  end
  begin
     id 15 
     name upperneck
     direction -0.0075675 0.996187 -0.0869092   
     length 1.39401   
     axis 0 0 0   XYZ
    dof rx ry rz
    limits (-20.0 45.0)
           (-30.0 30.0)
           (-30.0 30.0)
  end
  begin
     id 16
     name head
     direction -0.00222073 0.999264 -0.0382974  
     length 1.3964  
     axis 0 0 0   XYZ
    dof rx ry rz
    limits (-20.0 45.0)
           (-30.0 30.0)
           (-30.0 30.0)
  end
  begin
     id 17 
     name lclavicle
     direction 0.965962 0.222138 0.132556  
     length 2.81514  
     axis 0 0 0   XYZ
    dof ry rz
    limits (-20.0 10.0)
           (0.0 20.0)
  end
  begin
     id 18 
     name lhumerus
     direction 1 -4.48972e-011 7.03471e-018   
     length 4.47366   
     axis 180 -30 -90   XYZ
    dof rx ry rz
    limits (-60.0 90.0)
           (-90.0 90.0)
           (-90.0 90.0)
  end
  begin
     id 19
     name lradius
     direction 1 -4.48951e-011 -6.22192e-028   
     length 3.19948   
     axis 180 -30 -90   XYZ
    dof rx
    limits (-10.0 170.0)
  end
  begin
     id 20
     name lwrist
     direction 1 -4.48967e-011 -1.24264e-027   
     length 1.59974   
     axis 1.40095e-015 90 90   XYZ
    dof ry
    limits (-180.0 0.0)
 end
  begin
     id 21 
     name lhand
     direction 1 -4.4897e-011 -2.48528e-027   
     length 0.492667   
     axis 1.58582e-015 90 90   XYZ
    dof rx rz
    limits (-90.0 90.0)
           (-45.0 45.0)
  end
  begin
     id 22 
     name lfingers
     direction 1 -4.48996e-011 -4.97056e-027   
     length 0.397201   
     axis 3.17164e-015 90 90   XYZ
    dof rx
    limits (0.0 90.0)
  end
  begin
     id 23
     name lthumb
     direction 0.707107 -6.34981e-011 0.707107   
     length 0.570303   
     axis -90 45 2.85299e-015   XYZ
    dof rx rz
    limits (-45.0 45.0)
           (-45.0 45.0)
  end
  begin
     id 24 
     name rclavicle
     direction -0.961164 0.229034 0.153972   
     length 3.09348  
     axis 0 0 0   XYZ 
    dof ry rz
    limits (-10.0 20.0)
           (-20.0 0.0)
  end
  begin
     id 25 
     name rhumerus
     direction -1 -4.48971e-011 -9.06263e-028  
     length 4.3269   
     axis 180 30 90   XYZ
    dof rx ry rz
    limits (-90.0 60.0)
           (-90.0 90.0)
           (-90.0 90.0)
  end
  begin
     id 26 
     name rradius
     direction -1 -4.48953e-011 1.44659e-027   
     length 3.1896   
     axis 180 30 90   XYZ
    dof rx
    limits (-10.0 170.0)
  end
  begin
     id 27 
     name rwrist
     direction -1 -4.48988e-011 -1.24264e-027   
     length 1.5948   
     axis 1.40095e-015 -90 -90   XYZ
    dof ry
    limits (-180.0 0.0)
  end
  begin
     id 28
     name rhand
     direction -1 -4.49033e-011 -2.48528e-027   
     length 0.464496   
     axis 1.58582e-015 -90 -90   XYZ
    dof rx rz
    limits (-90.0 90.0)
           (-45.0 45.0)
  end
  begin
     id 29
     name rfingers
     direction -1 -4.48905e-011 -4.97056e-027   
     length 0.374489   
     axis 3.17164e-015 -90 -90   XYZ
    dof rx
    limits (0.0 90.0)
  end
  begin
     id 30
     name rthumb
     direction -0.707107 -6.34909e-011 0.707107   
     length 0.537693   
     axis -90 -45 -2.85299e-015   XYZ
    dof rx rz
    limits (-45.0 45.0)
           (-45.0 45.0)
  end
:hierarchy
  begin
    root lhipjoint rhipjoint lowerback
    lhipjoint lfemur
    lfemur ltibia
    ltibia lfoot
    lfoot ltoes
    rhipjoint rfemur
    rfemur rtibia
    rtibia rfoot
    rfoot rtoes
    lowerback upperback
    upperback thorax
    thorax lowerneck lclavicle rclavicle
    lowerneck upperneck
    upperneck head
    lclavicle lhumerus
    lhumerus lradius
    lradius lwrist
    lwrist lhand lthumb
    lhand lfingers
    rclavicle rhumerus
    rhumerus rradius
    rradius rwrist
    rwrist rhand rthumb
    rhand rfingers
  end

#!OML:ASF G:\acrobat\cartwheel_test 2\Patient 1\Session 2\acrobat4.ASF
:FULLY-SPECIFIED
:DEGREES
1
root 9.72575 15.2005 18.9827 -169.859 -17.6544 -178.709
lowerback -4.61467 7.36574 1.94822
upperback -1.08676 9.73412 -1.94766
thorax 2.09917 4.86312 -2.40623
lowerneck -1.05756 11.4072 12.8264
upperneck 10.3266 14.867 -3.5365
head 4.51076 7.6038 -2.30306
rclavicle 6.13002e-014 1.23246e-014
rhumerus -44.5433 2.23489 -87.4581
rradius 85.5894
rwrist 13.1174
rhand -23.5765 -22.6816
rfingers 7.12502
rthumb 2.88638 -52.6418
lclavicle 6.13002e-014 1.23246e-014
lhumerus -45.5285 -43.8239 103.099
lradius 96.8066
lwrist 3.2565
lhand -21.0354 -0.618757
lfingers 7.12502
lthumb 5.3402 29.294
rfemur -35.6469 7.23325 20.2411
rtibia 42.3631
rfoot -13.4886 -8.96477
rtoes 0.864748
lfemur -10.6682 -3.70861 -26.6965
ltibia 34.3355
lfoot -33.0088 23.3275
ltoes -11.792
2
root 9.73919 15.1967 19.034 -169.804 -17.9265 -178.361
lowerback -4.68913 7.19241 2.02141
upperback -1.09675 9.4959 -1.82223
thorax 2.10602 4.74401 -2.32941
lowerneck -1.68048 10.5158 12.1928
upperneck 10.9863 13.4932 -2.5837
head 4.59723 6.93967 -1.99081
rclavicle 4.08006e-014 3.97569e-015
rhumerus -44.5975 2.46457 -87.6754
rradius 85.3544
rwrist 13.1992
rhand -23.4325 -22.3009
rfingers 7.12502
rthumb 3.02542 -52.2592
lclavicle 4.08006e-014 3.97569e-015
lhumerus -46.0083 -43.7325 103.313
lradius 96.7066
lwrist 3.2842
lhand -20.314 -0.251518
lfingers 7.12502
lthumb 6.03668 29.6425
rfemur -36.0084 6.82518 20.6447
rtibia 42.2567
rfoot -13.2224 -8.75222
rtoes 0.315948
lfemur -11.124 -4.93005 -26.3941
ltibia 34.5751
lfoot -33.6158 24.1505
ltoes -10.7686
3
root 9.75459 15.1945 19.0845 -169.752 -18.2002 -178.196
lowerback -4.77006 6.95447 1.83203
upperback -0.997444 9.1862 -1.67816
thorax 2.18156 4.5897 -2.09151
lowerneck -2.20483 9.43375 11.4623
upperneck 11.5153 11.8897 -1.70992
head 4.6319 6.15747 -1.70919
rclavicle -5.38458e-014 3.57812e-015
rhumerus -44.4281 2.91117 -87.7766
rradius 85.1099
rwrist 13.3978
rhand -23.3066 -22.3013
rfingers 7.12502
rthumb 3.14701 -52.2578
lclavicle -5.38458e-014 3.57812e-015
lhumerus -46.254 -43.6021 103.383
lradius 96.5165
lwrist 3.09416
lhand -19.847 -0.396301
lfingers 7.12502
lthumb 6.48753 29.4843
rfemur -36.3729 6.57298 20.8323
rtibia 42.3179
rfoot -13.0941 -8.70686
rtoes 0.237993
lfemur -11.4779 -5.72846 -26.2135
ltibia 34.6884
lfoot -33.7784 24.6229
ltoes -10.5843
4
root 9.7716 15.1941 19.1299 -169.675 -18.4014 -178.285
lowerback -4.81811 6.74097 1.37129
upperback -0.836215 8.92618 -1.60198
thorax 2.2784 4.45891 -1.77304
lowerneck -2.74886 8.16332 10.587
upperneck 12.0202 10.0211 -0.696438
head 4.65776 5.24635 -1.37481
rclavicle -8.67447e-014 -3.97569e-016
rhumerus -44.2547 2.93448 -87.8167
rradius 85.0393
rwrist 13.9934
rhand -23.1818 -21.9374
rfingers 7.12502
rthumb 3.26749 -51.8922
lclavicle -8.67447e-014 -3.97569e-016
lhumerus -46.3305 -43.4413 103.36
lradius 96.3055
lwrist 2.77101
lhand -19.6684 -0.452325
lfingers 7.12502
lthumb 6.65991 29.4229
rfemur -36.6847 6.2063 20.8124
rtibia 42.4085
rfoot -13.1492 -8.48308
rtoes 0.722102
lfemur -11.7964 -5.9773 -26.2354
ltibia 34.8224
lfoot -33.651 24.6905
ltoes -11.2761
5
root 9.79104 15.191 19.1717 -169.604 -18.5016 -178.432
lowerback -4.85399 6.50396 0.854686
upperback -0.648518 8.64001 -1.56139
thorax 2.3967 4.31388 -1.46158
lowerneck -3.40263 6.80586 9.68655
upperneck 12.6892 8.00381 0.390017
head 4.7774 4.26886 -1.00863
rclavicle -4.33351e-014 1.35174e-014
rhumerus -44.0374 2.84215 -87.9657
rradius 84.967
rwrist 14.8068
rhand -22.8898 -21.5224
rfingers 7.12502
rthumb 3.54952 -51.4726
lclavicle -4.33351e-014 1.35174e-014
lhumerus -46.3967 -43.0271 103.148
lradius 96.0987
lwrist 2.42195
lhand -19.379 -0.427513
lfingers 7.12502
lthumb 6.93934 29.4387
rfemur -37.0055 5.81 20.7437
rtibia 42.5885
rfoot -13.1997 -8.0949
rtoes 0.698457
lfemur -12.0743 -6.03639 -26.2901
ltibia 34.9314
lfoot -33.4728 24.6095
ltoes -11.5864
6
root 9.80995 15.185 19.211 -169.555 -18.5268 -178.641
lowerback -4.91437 6.21031 0.277389
upperback -0.397964 8.2838 -1.49681
thorax 2.58468 4.13199 -1.0907
lowerneck -3.87002 5.43666 8.66701
upperneck 13.2925 6.00807 1.39324
head 4.88458 3.29409 -0.650341
rclavicle -1.42206e-013 -8.74653e-015
rhumerus -43.5765 3.41233 -88.0613
rradius 84.6553
rwrist 15.2566
rhand -22.671 -21.2989
rfingers 7.12502
rthumb 3.76084 -51.2454
lclavicle -1.42206e-013 -8.74653e-015
lhumerus -46.5081 -42.2414 102.805
lradius 95.9664
lwrist 1.94757
lhand -18.9464 -0.61069
lfingers 7.12502
lthumb 7.35685 29.2414
rfemur -37.3041 5.3252 20.6237
rtibia 42.8451
rfoot -13.1907 -7.51911
rtoes 0.352082
lfemur -12.3159 -5.62839 -26.3795
ltibia 35.037
lfoot -33.1071 24.3028
ltoes -12.3611
7
root 9.82602 15.1808 19.2493 -169.589 -18.5157 -178.909
lowerback -4.89961 5.87331 -0.35934
upperback -0.0733131 7.87492 -1.36782
thorax 2.79706 3.92096 -0.629654
lowerneck -4.09896 4.10247 7.57353
upperneck 13.7965 4.11902 2.19346
head 4.96546 2.35654 -0.338382
rclavicle -8.93289e-014 2.38542e-014
rhumerus -42.9821 4.50236 -88.0296
rradius 84.3926
rwrist 15.205
rhand -22.6008 -21.1139
rfingers 7.12502
rthumb 3.82863 -51.0592
lclavicle -8.93289e-014 2.38542e-014
lhumerus -46.5472 -41.13 102.419
lradius 95.9071
lwrist 1.43779
lhand -18.5632 -0.750724
lfingers 7.12502
lthumb 7.72676 29.0881
rfemur -37.5347 4.54274 20.5542
rtibia 43.1737
rfoot -13.185 -6.70693
rtoes 0.364294
lfemur -12.4655 -4.53381 -26.526
ltibia 35.1549
lfoot -32.5503 23.6307
ltoes -13.0718
